<?xml version="1.0" encoding="UTF-8"?><svg xmlns="http://www.w3.org/2000/svg" width="790" height="462" version="1.0" shape-rendering="geometricPrecision"><defs><style type="text/css">@font-face {
  font-family: sans-serif;
}</style><filter id="shadowBlur" x="0" y="0" width="200%" height="200%"><feOffset in="SourceGraphic" dx="3.0003002" dy="3.0003002" result="offOut"></feOffset><feGaussianBlur in="offOut" stdDeviation="3"></feGaussianBlur></filter></defs><g stroke-width="1" stroke-linecap="square" stroke-linejoin="round"><rect x="0" y="0" width="790" height="462" style="fill: #ffffff"></rect><path stroke="#969696" fill="#969696" filter="url(#shadowBlur)" d="M635.0 154.0 Q635.0 147.0 640.0 147.0 L760.0 147.0 Q765.0 147.0 765.0 154.0 L765.0 238.0 L765.0 238.0 Q765.0 245.0 760.0 245.0 L640.0 245.0 L640.0 245.0 Q635.0 245.0 635.0 238.0 L635.0 154.0 z"></path><path stroke="#969696" fill="#969696" filter="url(#shadowBlur)" d="M445.0 203.0 L595.0 203.0 L595.0 287.0 L445.0 287.0 z"></path><path stroke="#969696" fill="#969696" filter="url(#shadowBlur)" d="M295.0 84.0 Q295.0 77.0 300.0 77.0 L460.0 77.0 Q465.0 77.0 465.0 84.0 L465.0 140.0 L465.0 140.0 Q465.0 147.0 460.0 147.0 L300.0 147.0 L300.0 147.0 Q295.0 147.0 295.0 140.0 L295.0 84.0 z"></path><path stroke="#969696" fill="#969696" filter="url(#shadowBlur)" d="M635.0 294.0 Q635.0 287.0 640.0 287.0 L760.0 287.0 Q765.0 287.0 765.0 294.0 L765.0 336.0 L765.0 336.0 Q765.0 343.0 760.0 343.0 L640.0 343.0 L640.0 343.0 Q635.0 343.0 635.0 336.0 L635.0 294.0 z"></path><path stroke="#969696" fill="#969696" filter="url(#shadowBlur)" d="M25.0 294.0 Q25.0 287.0 30.0 287.0 L140.0 287.0 Q145.0 287.0 145.0 294.0 L145.0 336.0 L145.0 336.0 Q145.0 343.0 140.0 343.0 L30.0 343.0 L30.0 343.0 Q25.0 343.0 25.0 336.0 L25.0 294.0 z"></path><path stroke="#969696" fill="#969696" filter="url(#shadowBlur)" d="M185.0 210.0 Q185.0 203.0 190.0 203.0 L263.0 203.0 L263.0 287.0 L190.0 287.0 Q185.0 287.0 185.0 280.0 L185.0 210.0 z"></path><path stroke="#969696" fill="#969696" filter="url(#shadowBlur)" d="M267.0 203.0 L340.0 203.0 Q345.0 203.0 345.0 210.0 L345.0 280.0 L345.0 280.0 Q345.0 287.0 340.0 287.0 L267.0 287.0 L267.0 287.0 z"></path><path stroke="#969696" fill="#969696" filter="url(#shadowBlur)" d="M185.0 357.0 L335.0 357.0 L335.0 399.0 L185.0 399.0 z"></path><path stroke="#969696" fill="#969696" filter="url(#shadowBlur)" d="M445.0 357.0 L595.0 357.0 L595.0 399.0 L445.0 399.0 z"></path><path stroke="#969696" fill="#969696" filter="url(#shadowBlur)" d="M35.0 168.0 Q35.0 161.0 40.0 161.0 L140.0 161.0 Q145.0 161.0 145.0 168.0 L145.0 210.0 L145.0 210.0 Q145.0 217.0 140.0 217.0 L40.0 217.0 L40.0 217.0 Q35.0 217.0 35.0 210.0 L35.0 168.0 z"></path><path stroke="#969696" fill="#969696" filter="url(#shadowBlur)" d="M645.0 189.0 L755.0 189.0 L755.0 231.0 L645.0 231.0 z"></path><path stroke="#969696" fill="#969696" filter="url(#shadowBlur)" d="M195.0 231.0 L255.0 231.0 L255.0 273.0 L195.0 273.0 z"></path><path stroke="#969696" fill="#969696" filter="url(#shadowBlur)" d="M275.0 231.0 L335.0 231.0 L335.0 273.0 L275.0 273.0 z"></path><path stroke="#000000" stroke-width="1.0" stroke-linecap="round" stroke-linejoin="round" fill="none" d="M165.0 119.0 L165.0 420.0 Q165.0 427.0 170.0 427.0 L610.0 427.0 L610.0 427.0 Q615.0 427.0 615.0 420.0 L615.0 119.0 L615.0 119.0 "></path><path stroke="#000000" stroke-width="1.0" stroke-linecap="round" stroke-linejoin="round" fill="none" d="M285.0 91.0 L25.0 91.0 L25.0 245.0 L95.0 245.0 L95.0 273.0 "></path><path stroke="#000000" stroke-width="1.0" stroke-linecap="round" stroke-linejoin="round" fill="none" d="M165.0 77.0 L165.0 42.0 Q165.0 35.0 170.0 35.0 L610.0 35.0 L610.0 35.0 Q615.0 35.0 615.0 42.0 L615.0 91.0 L615.0 91.0 "></path><path stroke="#000000" stroke-width="1.0" stroke-linecap="round" stroke-linejoin="round" fill="none" d="M285.0 119.0 L175.0 119.0 L175.0 315.0 L235.0 315.0 L235.0 357.0 "></path><path stroke="#000000" stroke-width="1.0" stroke-linecap="round" stroke-linejoin="round" fill="white" d="M635.0 154.0 Q635.0 147.0 640.0 147.0 L760.0 147.0 Q765.0 147.0 765.0 154.0 L765.0 238.0 L765.0 238.0 Q765.0 245.0 760.0 245.0 L640.0 245.0 L640.0 245.0 Q635.0 245.0 635.0 238.0 L635.0 154.0 z"></path><path stroke="#000000" stroke-width="1.0" stroke-linecap="round" stroke-linejoin="round" fill="#ccffdd" d="M445.0 203.0 L595.0 203.0 L595.0 287.0 L445.0 287.0 z"></path><path stroke="#000000" stroke-width="1.0" stroke-linecap="round" stroke-linejoin="round" fill="white" d="M295.0 84.0 Q295.0 77.0 300.0 77.0 L460.0 77.0 Q465.0 77.0 465.0 84.0 L465.0 140.0 L465.0 140.0 Q465.0 147.0 460.0 147.0 L300.0 147.0 L300.0 147.0 Q295.0 147.0 295.0 140.0 L295.0 84.0 z"></path><path stroke="#000000" stroke-width="1.0" stroke-linecap="round" stroke-linejoin="round" fill="white" d="M635.0 294.0 Q635.0 287.0 640.0 287.0 L760.0 287.0 Q765.0 287.0 765.0 294.0 L765.0 336.0 L765.0 336.0 Q765.0 343.0 760.0 343.0 L640.0 343.0 L640.0 343.0 Q635.0 343.0 635.0 336.0 L635.0 294.0 z"></path><path stroke="#000000" stroke-width="1.0" stroke-linecap="round" stroke-linejoin="round" fill="white" d="M25.0 294.0 Q25.0 287.0 30.0 287.0 L140.0 287.0 Q145.0 287.0 145.0 294.0 L145.0 336.0 L145.0 336.0 Q145.0 343.0 140.0 343.0 L30.0 343.0 L30.0 343.0 Q25.0 343.0 25.0 336.0 L25.0 294.0 z"></path><path stroke="#000000" stroke-width="1.0" stroke-linecap="round" stroke-linejoin="round" fill="white" d="M185.0 210.0 Q185.0 203.0 190.0 203.0 L263.0 203.0 L263.0 287.0 L190.0 287.0 Q185.0 287.0 185.0 280.0 L185.0 210.0 z"></path><path stroke="#000000" stroke-width="1.0" stroke-linecap="round" stroke-linejoin="round" fill="white" d="M267.0 203.0 L340.0 203.0 Q345.0 203.0 345.0 210.0 L345.0 280.0 L345.0 280.0 Q345.0 287.0 340.0 287.0 L267.0 287.0 L267.0 287.0 z"></path><path stroke="#000000" stroke-width="1.0" stroke-linecap="round" stroke-linejoin="round" fill="#ccddff" d="M185.0 357.0 L335.0 357.0 L335.0 399.0 L185.0 399.0 z"></path><path stroke="#000000" stroke-width="1.0" stroke-linecap="round" stroke-linejoin="round" fill="#ccddff" d="M445.0 357.0 L595.0 357.0 L595.0 399.0 L445.0 399.0 z"></path><path stroke="#000000" stroke-width="1.0" stroke-linecap="round" stroke-linejoin="round" fill="white" d="M35.0 168.0 Q35.0 161.0 40.0 161.0 L140.0 161.0 Q145.0 161.0 145.0 168.0 L145.0 210.0 L145.0 210.0 Q145.0 217.0 140.0 217.0 L40.0 217.0 L40.0 217.0 Q35.0 217.0 35.0 210.0 L35.0 168.0 z"></path><path stroke="#000000" stroke-width="1.0" stroke-linecap="round" stroke-linejoin="round" fill="#ccddff" d="M645.0 189.0 L755.0 189.0 L755.0 231.0 L645.0 231.0 z"></path><path stroke="#000000" stroke-width="1.0" stroke-linecap="round" stroke-linejoin="round" fill="none" d="M285.0 105.0 L95.0 105.0 L95.0 147.0 "></path><path stroke="#000000" stroke-width="1.0" stroke-linecap="round" stroke-linejoin="round" fill="none" d="M475.0 105.0 L695.0 105.0 L695.0 133.0 "></path><path stroke="#000000" stroke-width="1.0" stroke-linecap="round" stroke-linejoin="round" fill="none" d="M495.0 301.0 L495.0 343.0 L395.0 343.0 L395.0 371.0 L335.0 371.0 "></path><path stroke="#000000" stroke-width="1.0" stroke-linecap="round" stroke-linejoin="round" fill="#ccddff" d="M195.0 231.0 L255.0 231.0 L255.0 273.0 L195.0 273.0 z"></path><path stroke="#000000" stroke-width="1.0" stroke-linecap="round" stroke-linejoin="round" fill="#ccddff" d="M275.0 231.0 L335.0 231.0 L335.0 273.0 L275.0 273.0 z"></path><path stroke="#000000" stroke-width="1.0" stroke-linecap="round" stroke-linejoin="round" fill="none" d="M435.0 259.0 L365.0 259.0 L365.0 315.0 L285.0 315.0 L285.0 343.0 "></path><path stroke="#000000" stroke-width="1.0" stroke-linecap="round" stroke-linejoin="round" fill="none" d="M475.0 119.0 L525.0 119.0 L525.0 189.0 "></path><path stroke="#000000" stroke-width="1.0" stroke-linecap="round" stroke-linejoin="round" fill="none" d="M285.0 133.0 L235.0 133.0 L235.0 189.0 "></path><path stroke="none" stroke-width="1.0" stroke-linecap="round" stroke-linejoin="round" fill="#000000" d="M280.0 84.0 L290.0 91.0 L280.0 98.0 z"></path><path stroke="none" stroke-width="1.0" stroke-linecap="round" stroke-linejoin="round" fill="#000000" d="M280.0 98.0 L290.0 105.0 L280.0 112.0 z"></path><path stroke="none" stroke-width="1.0" stroke-linecap="round" stroke-linejoin="round" fill="#000000" d="M480.0 98.0 L470.0 105.0 L480.0 112.0 z"></path><path stroke="none" stroke-width="1.0" stroke-linecap="round" stroke-linejoin="round" fill="#000000" d="M280.0 112.0 L290.0 119.0 L280.0 126.0 z"></path><path stroke="none" stroke-width="1.0" stroke-linecap="round" stroke-linejoin="round" fill="#000000" d="M480.0 112.0 L470.0 119.0 L480.0 126.0 z"></path><path stroke="none" stroke-width="1.0" stroke-linecap="round" stroke-linejoin="round" fill="#000000" d="M280.0 126.0 L290.0 133.0 L280.0 140.0 z"></path><path stroke="none" stroke-width="1.0" stroke-linecap="round" stroke-linejoin="round" fill="#000000" d="M690.0 126.0 L695.0 140.0 L700.0 126.0 z"></path><path stroke="none" stroke-width="1.0" stroke-linecap="round" stroke-linejoin="round" fill="#000000" d="M90.0 140.0 L95.0 154.0 L100.0 140.0 z"></path><path stroke="none" stroke-width="1.0" stroke-linecap="round" stroke-linejoin="round" fill="#000000" d="M325.0 154.0 L320.0 168.0 L330.0 168.0 z"></path><path stroke="none" stroke-width="1.0" stroke-linecap="round" stroke-linejoin="round" fill="#000000" d="M230.0 182.0 L235.0 196.0 L240.0 182.0 z"></path><path stroke="none" stroke-width="1.0" stroke-linecap="round" stroke-linejoin="round" fill="#000000" d="M320.0 182.0 L325.0 196.0 L330.0 182.0 z"></path><path stroke="none" stroke-width="1.0" stroke-linecap="round" stroke-linejoin="round" fill="#000000" d="M520.0 182.0 L525.0 196.0 L530.0 182.0 z"></path><path stroke="none" stroke-width="1.0" stroke-linecap="round" stroke-linejoin="round" fill="#000000" d="M360.0 224.0 L350.0 231.0 L360.0 238.0 z"></path><path stroke="none" stroke-width="1.0" stroke-linecap="round" stroke-linejoin="round" fill="#000000" d="M430.0 224.0 L440.0 231.0 L430.0 238.0 z"></path><path stroke="none" stroke-width="1.0" stroke-linecap="round" stroke-linejoin="round" fill="#000000" d="M430.0 252.0 L440.0 259.0 L430.0 266.0 z"></path><path stroke="none" stroke-width="1.0" stroke-linecap="round" stroke-linejoin="round" fill="#000000" d="M90.0 266.0 L95.0 280.0 L100.0 266.0 z"></path><path stroke="none" stroke-width="1.0" stroke-linecap="round" stroke-linejoin="round" fill="#000000" d="M690.0 266.0 L695.0 280.0 L700.0 266.0 z"></path><path stroke="none" stroke-width="1.0" stroke-linecap="round" stroke-linejoin="round" fill="#000000" d="M495.0 294.0 L490.0 308.0 L500.0 308.0 z"></path><path stroke="none" stroke-width="1.0" stroke-linecap="round" stroke-linejoin="round" fill="#000000" d="M535.0 294.0 L530.0 308.0 L540.0 308.0 z"></path><path stroke="none" stroke-width="1.0" stroke-linecap="round" stroke-linejoin="round" fill="#000000" d="M280.0 336.0 L285.0 350.0 L290.0 336.0 z"></path><path stroke="none" stroke-width="1.0" stroke-linecap="round" stroke-linejoin="round" fill="#000000" d="M530.0 336.0 L535.0 350.0 L540.0 336.0 z"></path><path stroke="none" stroke-width="1.0" stroke-linecap="round" stroke-linejoin="round" fill="#000000" d="M350.0 378.0 L340.0 385.0 L350.0 392.0 z"></path><path stroke="none" stroke-width="1.0" stroke-linecap="round" stroke-linejoin="round" fill="#000000" d="M430.0 378.0 L440.0 385.0 L430.0 392.0 z"></path><path stroke="#000000" stroke-width="1.0" stroke-linecap="round" stroke-linejoin="round" fill="none" d="M325.0 161.0 L325.0 189.0 "></path><path stroke="#000000" stroke-width="1.0" stroke-linecap="round" stroke-linejoin="round" fill="none" d="M695.0 245.0 L695.0 273.0 "></path><path stroke="#000000" stroke-width="1.0" stroke-linecap="round" stroke-linejoin="round" fill="none" d="M355.0 231.0 L435.0 231.0 "></path><path stroke="#000000" stroke-width="1.0" stroke-linecap="round" stroke-linejoin="round" fill="none" d="M535.0 301.0 L535.0 343.0 "></path><path stroke="#000000" stroke-width="1.0" stroke-linecap="round" stroke-linejoin="round" fill="none" d="M345.0 385.0 L435.0 385.0 "></path><text x="292" y="55" font-family="sans-serif" font-size="16" stroke="none" fill="#000000"><![CDATA[BeagleBone Black SBC]]></text><text x="371" y="97" font-family="sans-serif" font-size="16" stroke="none" fill="#000000"><![CDATA[2x]]></text><text x="361" y="110" font-family="sans-serif" font-size="15" stroke="none" fill="#000000"><![CDATA[GPIO]]></text><text x="363" y="125" font-family="sans-serif" font-size="16" stroke="none" fill="#000000"><![CDATA[Pins]]></text><text x="353" y="139" font-family="sans-serif" font-size="16" stroke="none" fill="#000000"><![CDATA[Header]]></text><text x="704" y="125" font-family="sans-serif" font-size="16" stroke="none" fill="#000000"><![CDATA[I/O]]></text><text x="104" y="139" font-family="sans-serif" font-size="16" stroke="none" fill="#000000"><![CDATA[I/O]]></text><text x="647" y="167" font-family="sans-serif" font-size="16" stroke="none" fill="#000000"><![CDATA[Arduino Nano]]></text><text x="673" y="181" font-family="sans-serif" font-size="16" stroke="none" fill="#000000"><![CDATA[33 BLE]]></text><text x="60" y="181" font-family="sans-serif" font-size="16" stroke="none" fill="#000000"><![CDATA[OV7670]]></text><text x="71" y="194" font-family="sans-serif" font-size="13" stroke="none" fill="#000000"><![CDATA[Cam]]></text><text x="62" y="209" font-family="sans-serif" font-size="16" stroke="none" fill="#000000"><![CDATA[Module]]></text><text x="244" y="181" font-family="sans-serif" font-size="16" stroke="none" fill="#000000"><![CDATA[I/O]]></text><text x="334" y="181" font-family="sans-serif" font-size="16" stroke="none" fill="#000000"><![CDATA[I/O]]></text><text x="534" y="181" font-family="sans-serif" font-size="16" stroke="none" fill="#000000"><![CDATA[I/O]]></text><text x="655" y="209" font-family="sans-serif" font-size="16" stroke="none" fill="#000000"><![CDATA[Stopwatch]]></text><text x="201" y="223" font-family="sans-serif" font-size="16" stroke="none" fill="#000000"><![CDATA[PRU 0]]></text><text x="281" y="223" font-family="sans-serif" font-size="16" stroke="none" fill="#000000"><![CDATA[PRU 1]]></text><text x="371" y="223" font-family="sans-serif" font-size="16" stroke="none" fill="#000000"><![CDATA[rpmsg]]></text><text x="488" y="237" font-family="sans-serif" font-size="16" stroke="none" fill="#000000"><![CDATA[Mainline]]></text><text x="490" y="251" font-family="sans-serif" font-size="16" stroke="none" fill="#000000"><![CDATA[Linux]]></text><text x="490" y="265" font-family="sans-serif" font-size="16" stroke="none" fill="#000000"><![CDATA[Kernel]]></text><text x="211" y="250" font-family="sans-serif" font-size="15" stroke="none" fill="#000000"><![CDATA[Fw0]]></text><text x="291" y="250" font-family="sans-serif" font-size="15" stroke="none" fill="#000000"><![CDATA[Fw1]]></text><text x="104" y="265" font-family="sans-serif" font-size="16" stroke="none" fill="#000000"><![CDATA[I/O]]></text><text x="702" y="265" font-family="sans-serif" font-size="16" stroke="none" fill="#000000"><![CDATA[I2C]]></text><text x="75" y="307" font-family="sans-serif" font-size="16" stroke="none" fill="#000000"><![CDATA[4.3"]]></text><text x="50" y="321" font-family="sans-serif" font-size="16" stroke="none" fill="#000000"><![CDATA[480 x 272]]></text><text x="51" y="335" font-family="sans-serif" font-size="16" stroke="none" fill="#000000"><![CDATA[TFT LCD]]></text><text x="678" y="307" font-family="sans-serif" font-size="16" stroke="none" fill="#000000"><![CDATA[16 x 2]]></text><text x="647" y="321" font-family="sans-serif" font-size="16" stroke="none" fill="#000000"><![CDATA[Alphanumeric]]></text><text x="681" y="334" font-family="sans-serif" font-size="14" stroke="none" fill="#000000"><![CDATA[LCD]]></text><text x="202" y="335" font-family="sans-serif" font-size="16" stroke="none" fill="#000000"><![CDATA[I2C]]></text><text x="294" y="335" font-family="sans-serif" font-size="16" stroke="none" fill="#000000"><![CDATA[fbdev]]></text><text x="402" y="335" font-family="sans-serif" font-size="16" stroke="none" fill="#000000"><![CDATA[GPIO ioctl]]></text><text x="541" y="335" font-family="sans-serif" font-size="16" stroke="none" fill="#000000"><![CDATA[rpmsg]]></text><text x="223" y="376" font-family="sans-serif" font-size="15" stroke="none" fill="#000000"><![CDATA[rpmsgcam]]></text><text x="241" y="391" font-family="sans-serif" font-size="16" stroke="none" fill="#000000"><![CDATA[app]]></text><text x="483" y="376" font-family="sans-serif" font-size="15" stroke="none" fill="#000000"><![CDATA[rpmsgcam]]></text><text x="503" y="391" font-family="sans-serif" font-size="16" stroke="none" fill="#000000"><![CDATA[drv]]></text><text x="364" y="405" font-family="sans-serif" font-size="16" stroke="none" fill="#000000"><![CDATA[chrdev]]></text></g></svg>