<?xml version="1.0" encoding="UTF-8"?><svg xmlns="http://www.w3.org/2000/svg" width="590" height="350" version="1.0" shape-rendering="geometricPrecision"><defs><style type="text/css">@font-face {
  font-family: sans-serif;
}</style><filter id="shadowBlur" x="0" y="0" width="200%" height="200%"><feOffset in="SourceGraphic" dx="3.0003002" dy="3.0003002" result="offOut"></feOffset><feGaussianBlur in="offOut" stdDeviation="3"></feGaussianBlur></filter></defs><g stroke-width="1" stroke-linecap="square" stroke-linejoin="round"><rect x="0" y="0" width="590" height="350" style="fill: #ffffff"></rect><path stroke="#969696" fill="#969696" filter="url(#shadowBlur)" d="M375.0 182.0 Q375.0 175.0 380.0 175.0 L530.0 175.0 Q535.0 175.0 535.0 182.0 L535.0 238.0 L535.0 238.0 Q535.0 245.0 530.0 245.0 L380.0 245.0 L380.0 245.0 Q375.0 245.0 375.0 238.0 L375.0 182.0 z"></path><path stroke="#969696" fill="#969696" filter="url(#shadowBlur)" d="M35.0 175.0 L125.0 175.0 L125.0 245.0 Q95.0 237.0 80.0 245.0 Q65.0 253.0 35.0 245.0 z"></path><path stroke="#969696" fill="#969696" filter="url(#shadowBlur)" d="M225.0 77.0 L365.0 77.0 L365.0 119.0 L225.0 119.0 z"></path><path stroke="#969696" fill="#969696" filter="url(#shadowBlur)" d="M175.0 205.0 L315.0 205.0 L315.0 245.0 L175.0 245.0 z"></path><path stroke="#969696" fill="#969696" filter="url(#shadowBlur)" d="M175.0 175.0 L315.0 175.0 L315.0 201.0 L175.0 201.0 z"></path><path stroke="#000000" stroke-width="1.0" stroke-linecap="round" stroke-linejoin="round" fill="none" d="M155.0 175.0 L155.0 35.0 L565.0 35.0 L565.0 315.0 L155.0 315.0 L155.0 301.0 "></path><path stroke="#000000" stroke-width="1.0" stroke-linecap="round" stroke-linejoin="round" fill="none" d="M75.0 245.0 L75.0 287.0 L435.0 287.0 L435.0 259.0 "></path><path stroke="#000000" stroke-width="1.0" stroke-linecap="round" stroke-linejoin="round" fill="white" d="M375.0 182.0 Q375.0 175.0 380.0 175.0 L530.0 175.0 Q535.0 175.0 535.0 182.0 L535.0 238.0 L535.0 238.0 Q535.0 245.0 530.0 245.0 L380.0 245.0 L380.0 245.0 Q375.0 245.0 375.0 238.0 L375.0 182.0 z"></path><path stroke="#000000" stroke-width="1.0" stroke-linecap="round" stroke-linejoin="round" fill="white" d="M35.0 175.0 L125.0 175.0 L125.0 245.0 Q95.0 237.0 80.0 245.0 Q65.0 253.0 35.0 245.0 z"></path><path stroke="#000000" stroke-width="1.0" stroke-linecap="round" stroke-linejoin="round" fill="white" d="M225.0 77.0 L365.0 77.0 L365.0 119.0 L225.0 119.0 z"></path><path stroke="#000000" stroke-width="1.0" stroke-linecap="round" stroke-linejoin="round" fill="white" d="M175.0 205.0 L315.0 205.0 L315.0 245.0 L175.0 245.0 z"></path><path stroke="#000000" stroke-width="1.0" stroke-linecap="round" stroke-linejoin="round" fill="white" d="M175.0 175.0 L315.0 175.0 L315.0 201.0 L175.0 201.0 z"></path><path stroke="#000000" stroke-width="1.0" stroke-linecap="round" stroke-linejoin="round" fill="none" d="M365.0 91.0 L445.0 91.0 L445.0 161.0 "></path><path stroke="none" stroke-width="1.0" stroke-linecap="round" stroke-linejoin="round" fill="#000000" d="M275.0 126.0 L270.0 140.0 L280.0 140.0 z"></path><path stroke="none" stroke-width="1.0" stroke-linecap="round" stroke-linejoin="round" fill="#000000" d="M440.0 154.0 L445.0 168.0 L450.0 154.0 z"></path><path stroke="none" stroke-width="1.0" stroke-linecap="round" stroke-linejoin="round" fill="#000000" d="M360.0 182.0 L370.0 189.0 L360.0 196.0 z"></path><path stroke="none" stroke-width="1.0" stroke-linecap="round" stroke-linejoin="round" fill="#000000" d="M435.0 252.0 L430.0 266.0 L440.0 266.0 z"></path><path stroke="#000000" stroke-width="1.0" stroke-linecap="round" stroke-linejoin="round" fill="none" d="M155.0 203.0 L155.0 273.0 "></path><path stroke="#000000" stroke-width="1.0" stroke-linecap="round" stroke-linejoin="round" fill="none" d="M275.0 133.0 L275.0 175.0 "></path><path stroke="#000000" stroke-width="1.0" stroke-linecap="round" stroke-linejoin="round" fill="none" d="M125.0 189.0 L175.0 189.0 "></path><path stroke="#000000" stroke-width="1.0" stroke-linecap="round" stroke-linejoin="round" fill="none" d="M315.0 189.0 L365.0 189.0 "></path><text x="274" y="54" font-family="sans-serif" font-size="14" stroke="none" fill="#000000"><![CDATA[BEAGLEBONE BLACK]]></text><text x="244" y="96" font-family="sans-serif" font-size="15" stroke="none" fill="#000000"><![CDATA[PIN HEADER]]></text><text x="464" y="139" font-family="sans-serif" font-size="16" stroke="none" fill="#000000"><![CDATA[I/O]]></text><text x="294" y="153" font-family="sans-serif" font-size="16" stroke="none" fill="#000000"><![CDATA[I/O]]></text><text x="210" y="194" font-family="sans-serif" font-size="15" stroke="none" fill="#000000"><![CDATA[PRU0]]></text><text x="50" y="208" font-family="sans-serif" font-size="13" stroke="none" fill="#000000"><![CDATA[Cam]]></text><text x="50" y="223" font-family="sans-serif" font-size="16" stroke="none" fill="#000000"><![CDATA[Module]]></text><text x="414" y="209" font-family="sans-serif" font-size="16" stroke="none" fill="#000000"><![CDATA[Linux]]></text><text x="425" y="223" font-family="sans-serif" font-size="16" stroke="none" fill="#000000"><![CDATA[Kernel]]></text><text x="210" y="222" font-family="sans-serif" font-size="15" stroke="none" fill="#000000"><![CDATA[PRU1]]></text><text x="182" y="279" font-family="sans-serif" font-size="16" stroke="none" fill="#000000"><![CDATA[I2C]]></text></g></svg>