<?xml version="1.0" encoding="UTF-8"?><svg xmlns="http://www.w3.org/2000/svg" width="800" height="308" version="1.0" shape-rendering="geometricPrecision"><defs><style type="text/css">@font-face {
  font-family: sans-serif;
}</style><filter id="shadowBlur" x="0" y="0" width="200%" height="200%"><feOffset in="SourceGraphic" dx="3.0003002" dy="3.0003002" result="offOut"></feOffset><feGaussianBlur in="offOut" stdDeviation="3"></feGaussianBlur></filter></defs><g stroke-width="1" stroke-linecap="square" stroke-linejoin="round"><rect x="0" y="0" width="800" height="308" style="fill: #ffffff"></rect><path stroke="#969696" fill="#969696" filter="url(#shadowBlur)" d="M605.0 182.0 Q605.0 175.0 610.0 175.0 L770.0 175.0 Q775.0 175.0 775.0 182.0 L775.0 238.0 L775.0 238.0 Q775.0 245.0 770.0 245.0 L610.0 245.0 L610.0 245.0 Q605.0 245.0 605.0 238.0 L605.0 182.0 z"></path><path stroke="#969696" fill="#969696" filter="url(#shadowBlur)" d="M375.0 182.0 Q375.0 175.0 380.0 175.0 L530.0 175.0 Q535.0 175.0 535.0 182.0 L535.0 238.0 L535.0 238.0 Q535.0 245.0 530.0 245.0 L380.0 245.0 L380.0 245.0 Q375.0 245.0 375.0 238.0 L375.0 182.0 z"></path><path stroke="#969696" fill="#969696" filter="url(#shadowBlur)" d="M605.0 63.0 L775.0 63.0 L775.0 105.0 L605.0 105.0 z"></path><path stroke="#969696" fill="#969696" filter="url(#shadowBlur)" d="M205.0 77.0 L375.0 77.0 L375.0 119.0 L205.0 119.0 z"></path><path stroke="#969696" fill="#969696" filter="url(#shadowBlur)" d="M35.0 175.0 L125.0 175.0 L125.0 245.0 Q95.0 237.0 80.0 245.0 Q65.0 253.0 35.0 245.0 z"></path><path stroke="#969696" fill="#969696" filter="url(#shadowBlur)" d="M175.0 175.0 L243.0 175.0 L243.0 245.0 L175.0 245.0 z"></path><path stroke="#969696" fill="#969696" filter="url(#shadowBlur)" d="M247.0 175.0 L315.0 175.0 L315.0 245.0 L247.0 245.0 z"></path><path stroke="#000000" stroke-width="1.0" stroke-linecap="round" stroke-linejoin="round" fill="none" d="M155.0 105.0 L155.0 273.0 L565.0 273.0 L565.0 147.0 "></path><path stroke="#000000" stroke-width="1.0" stroke-linecap="round" stroke-linejoin="round" fill="none" d="M155.0 77.0 L155.0 35.0 L565.0 35.0 L565.0 119.0 "></path><path stroke="#000000" stroke-width="1.0" stroke-linecap="round" stroke-linejoin="round" fill="white" d="M605.0 182.0 Q605.0 175.0 610.0 175.0 L770.0 175.0 Q775.0 175.0 775.0 182.0 L775.0 238.0 L775.0 238.0 Q775.0 245.0 770.0 245.0 L610.0 245.0 L610.0 245.0 Q605.0 245.0 605.0 238.0 L605.0 182.0 z"></path><path stroke="#000000" stroke-width="1.0" stroke-linecap="round" stroke-linejoin="round" fill="white" d="M375.0 182.0 Q375.0 175.0 380.0 175.0 L530.0 175.0 Q535.0 175.0 535.0 182.0 L535.0 238.0 L535.0 238.0 Q535.0 245.0 530.0 245.0 L380.0 245.0 L380.0 245.0 Q375.0 245.0 375.0 238.0 L375.0 182.0 z"></path><path stroke="#000000" stroke-width="1.0" stroke-linecap="round" stroke-linejoin="round" fill="white" d="M605.0 63.0 L775.0 63.0 L775.0 105.0 L605.0 105.0 z"></path><path stroke="#000000" stroke-width="1.0" stroke-linecap="round" stroke-linejoin="round" fill="white" d="M205.0 77.0 L375.0 77.0 L375.0 119.0 L205.0 119.0 z"></path><path stroke="#000000" stroke-width="1.0" stroke-linecap="round" stroke-linejoin="round" fill="white" d="M35.0 175.0 L125.0 175.0 L125.0 245.0 Q95.0 237.0 80.0 245.0 Q65.0 253.0 35.0 245.0 z"></path><path stroke="#000000" stroke-width="1.0" stroke-linecap="round" stroke-linejoin="round" fill="white" d="M175.0 175.0 L243.0 175.0 L243.0 245.0 L175.0 245.0 z"></path><path stroke="#000000" stroke-width="1.0" stroke-linecap="round" stroke-linejoin="round" fill="white" d="M247.0 175.0 L315.0 175.0 L315.0 245.0 L247.0 245.0 z"></path><path stroke="#000000" stroke-width="1.0" stroke-linecap="round" stroke-linejoin="round" fill="none" d="M195.0 91.0 L75.0 91.0 L75.0 161.0 "></path><path stroke="#000000" stroke-width="1.0" stroke-linecap="round" stroke-linejoin="round" fill="none" d="M375.0 91.0 L515.0 91.0 L515.0 133.0 L655.0 133.0 L655.0 161.0 "></path><path stroke="#000000" stroke-width="1.0" stroke-linecap="round" stroke-linejoin="round" fill="none" d="M375.0 105.0 L455.0 105.0 L455.0 161.0 "></path><path stroke="none" stroke-width="1.0" stroke-linecap="round" stroke-linejoin="round" fill="#000000" d="M190.0 84.0 L200.0 91.0 L190.0 98.0 z"></path><path stroke="none" stroke-width="1.0" stroke-linecap="round" stroke-linejoin="round" fill="#000000" d="M725.0 112.0 L720.0 126.0 L730.0 126.0 z"></path><path stroke="none" stroke-width="1.0" stroke-linecap="round" stroke-linejoin="round" fill="#000000" d="M225.0 126.0 L220.0 140.0 L230.0 140.0 z"></path><path stroke="none" stroke-width="1.0" stroke-linecap="round" stroke-linejoin="round" fill="#000000" d="M285.0 126.0 L280.0 140.0 L290.0 140.0 z"></path><path stroke="none" stroke-width="1.0" stroke-linecap="round" stroke-linejoin="round" fill="#000000" d="M70.0 154.0 L75.0 168.0 L80.0 154.0 z"></path><path stroke="none" stroke-width="1.0" stroke-linecap="round" stroke-linejoin="round" fill="#000000" d="M220.0 154.0 L225.0 168.0 L230.0 154.0 z"></path><path stroke="none" stroke-width="1.0" stroke-linecap="round" stroke-linejoin="round" fill="#000000" d="M280.0 154.0 L285.0 168.0 L290.0 154.0 z"></path><path stroke="none" stroke-width="1.0" stroke-linecap="round" stroke-linejoin="round" fill="#000000" d="M450.0 154.0 L455.0 168.0 L460.0 154.0 z"></path><path stroke="none" stroke-width="1.0" stroke-linecap="round" stroke-linejoin="round" fill="#000000" d="M650.0 154.0 L655.0 168.0 L660.0 154.0 z"></path><path stroke="none" stroke-width="1.0" stroke-linecap="round" stroke-linejoin="round" fill="#000000" d="M720.0 154.0 L725.0 168.0 L730.0 154.0 z"></path><path stroke="none" stroke-width="1.0" stroke-linecap="round" stroke-linejoin="round" fill="#000000" d="M330.0 196.0 L320.0 203.0 L330.0 210.0 z"></path><path stroke="none" stroke-width="1.0" stroke-linecap="round" stroke-linejoin="round" fill="#000000" d="M360.0 196.0 L370.0 203.0 L360.0 210.0 z"></path><path stroke="#000000" stroke-width="1.0" stroke-linecap="round" stroke-linejoin="round" fill="none" d="M225.0 133.0 L225.0 161.0 "></path><path stroke="#000000" stroke-width="1.0" stroke-linecap="round" stroke-linejoin="round" fill="none" d="M285.0 133.0 L285.0 161.0 "></path><path stroke="#000000" stroke-width="1.0" stroke-linecap="round" stroke-linejoin="round" fill="none" d="M725.0 119.0 L725.0 161.0 "></path><path stroke="#000000" stroke-width="1.0" stroke-linecap="round" stroke-linejoin="round" fill="none" d="M325.0 203.0 L365.0 203.0 "></path><text x="281" y="55" font-family="sans-serif" font-size="16" stroke="none" fill="#000000"><![CDATA[BeagleBone Black]]></text><text x="656" y="83" font-family="sans-serif" font-size="16" stroke="none" fill="#000000"><![CDATA[16x2 LCD]]></text><text x="673" y="97" font-family="sans-serif" font-size="16" stroke="none" fill="#000000"><![CDATA[Display]]></text><text x="257" y="97" font-family="sans-serif" font-size="16" stroke="none" fill="#000000"><![CDATA[GPIO PIN]]></text><text x="266" y="111" font-family="sans-serif" font-size="16" stroke="none" fill="#000000"><![CDATA[Headers]]></text><text x="34" y="153" font-family="sans-serif" font-size="16" stroke="none" fill="#000000"><![CDATA[I/O]]></text><text x="184" y="153" font-family="sans-serif" font-size="16" stroke="none" fill="#000000"><![CDATA[I/O]]></text><text x="304" y="153" font-family="sans-serif" font-size="16" stroke="none" fill="#000000"><![CDATA[I/O]]></text><text x="412" y="153" font-family="sans-serif" font-size="16" stroke="none" fill="#000000"><![CDATA[I2C]]></text><text x="614" y="153" font-family="sans-serif" font-size="16" stroke="none" fill="#000000"><![CDATA[I/O]]></text><text x="742" y="153" font-family="sans-serif" font-size="16" stroke="none" fill="#000000"><![CDATA[I2C]]></text><text x="50" y="195" font-family="sans-serif" font-size="16" stroke="none" fill="#000000"><![CDATA[OV7670]]></text><text x="61" y="208" font-family="sans-serif" font-size="13" stroke="none" fill="#000000"><![CDATA[Cam]]></text><text x="52" y="223" font-family="sans-serif" font-size="16" stroke="none" fill="#000000"><![CDATA[Module]]></text><text x="191" y="208" font-family="sans-serif" font-size="14" stroke="none" fill="#000000"><![CDATA[PRU]]></text><text x="204" y="223" font-family="sans-serif" font-size="16" stroke="none" fill="#000000"><![CDATA[0 ]]></text><text x="261" y="208" font-family="sans-serif" font-size="14" stroke="none" fill="#000000"><![CDATA[PRU]]></text><text x="274" y="223" font-family="sans-serif" font-size="16" stroke="none" fill="#000000"><![CDATA[1 ]]></text><text x="414" y="209" font-family="sans-serif" font-size="16" stroke="none" fill="#000000"><![CDATA[Linux]]></text><text x="435" y="223" font-family="sans-serif" font-size="16" stroke="none" fill="#000000"><![CDATA[Kernel]]></text><text x="637" y="209" font-family="sans-serif" font-size="16" stroke="none" fill="#000000"><![CDATA[Arduino Nano]]></text><text x="663" y="223" font-family="sans-serif" font-size="16" stroke="none" fill="#000000"><![CDATA[33 BLE]]></text><text x="331" y="223" font-family="sans-serif" font-size="16" stroke="none" fill="#000000"><![CDATA[IPC]]></text></g></svg>